<svg width="65" height="65" viewBox="0 0 65 65" fill="none" xmlns="http://www.w3.org/2000/svg">
<g clip-path="url(#clip0_703_1301)">
<path d="M20.8401 4.55259C21.3582 4.55259 21.7782 4.13259 21.7782 3.61446V1.80434C21.7782 1.28621 21.3582 0.866211 20.8401 0.866211C20.322 0.866211 19.902 1.28621 19.902 1.80434V3.61446C19.902 4.13246 20.322 4.55259 20.8401 4.55259Z" fill="#6C1D5F"/>
<path d="M33.4162 9.21251L34.6961 7.93251C35.0625 7.56613 35.0625 6.97213 34.6961 6.60588C34.3297 6.23938 33.7357 6.23951 33.3695 6.60588L32.0896 7.88588C31.7232 8.25226 31.7232 8.84626 32.0896 9.21251C32.2727 9.39576 32.5128 9.48726 32.753 9.48726C32.993 9.48726 33.233 9.39563 33.4162 9.21251Z" fill="#6C1D5F"/>
<path d="M8.26398 31.7113L6.98398 32.9912C6.6176 33.3576 6.6176 33.9514 6.98398 34.3178C7.1671 34.5011 7.40723 34.5926 7.64735 34.5926C7.88748 34.5926 8.12748 34.5009 8.31073 34.3178L9.59073 33.0379C9.9571 32.6716 9.9571 32.0777 9.59073 31.7113C9.22435 31.3449 8.63035 31.3449 8.26398 31.7113Z" fill="#6C1D5F"/>
<path d="M39.4972 21.3997C40.0153 21.3997 40.4353 20.9797 40.4353 20.4616C40.4353 19.9434 40.0153 19.5234 39.4972 19.5234H37.6872C37.1691 19.5234 36.7491 19.9434 36.7491 20.4616C36.7491 20.9797 37.1691 21.3997 37.6872 21.3997H39.4972Z" fill="#6C1D5F"/>
<path d="M3.99297 19.5234H2.18285C1.66472 19.5234 1.24472 19.9434 1.24472 20.4616C1.24472 20.9797 1.66472 21.3997 2.18285 21.3997H3.99297C4.5111 21.3997 4.9311 20.9797 4.9311 20.4616C4.9311 19.9434 4.51097 19.5234 3.99297 19.5234Z" fill="#6C1D5F"/>
<path d="M33.4162 31.7113C33.0498 31.3449 32.4559 31.3449 32.0896 31.7113C31.7232 32.0777 31.7232 32.6717 32.0896 33.0379L33.2625 34.2108C33.4456 34.3939 33.6857 34.4856 33.9258 34.4856C34.166 34.4856 34.406 34.3939 34.5892 34.2108C34.9556 33.8444 34.9556 33.2504 34.5892 32.8842L33.4162 31.7113Z" fill="#6C1D5F"/>
<path d="M8.26398 9.21246C8.4471 9.39559 8.68723 9.48721 8.92735 9.48721C9.16748 9.48721 9.40748 9.39559 9.59073 9.21246C9.9571 8.84609 9.9571 8.25209 9.59073 7.88584L8.31073 6.60584C7.94435 6.23946 7.35035 6.23946 6.9841 6.60584C6.61773 6.97221 6.61773 7.56621 6.9841 7.93246L8.26398 9.21246Z" fill="#6C1D5F"/>
<path d="M17.8363 27.4102C17.9101 27.3366 17.9962 27.3195 18.0926 27.3592C18.189 27.3992 18.2377 27.4722 18.2377 27.5765C18.2377 28.8172 19.2471 29.8266 20.4878 29.8266H21.1922C22.433 29.8266 23.4423 28.8172 23.4423 27.5765C23.4423 27.4722 23.4912 27.3991 23.5875 27.3592C23.6838 27.3195 23.77 27.3365 23.8437 27.4102C24.2687 27.8352 24.8337 28.0692 25.4347 28.0692C26.0357 28.0692 26.6008 27.8352 27.0258 27.4102L27.524 26.9121C27.949 26.4871 28.183 25.9221 28.183 25.3211C28.183 24.7201 27.949 24.155 27.524 23.73C27.4502 23.6562 27.4331 23.57 27.473 23.4737C27.513 23.3774 27.586 23.3286 27.6902 23.3286C28.931 23.3286 29.9403 22.3192 29.9403 21.0785V20.3741C29.9403 19.1334 28.9308 18.124 27.6902 18.124C27.586 18.124 27.513 18.0751 27.473 17.9789C27.4331 17.8825 27.4502 17.7964 27.524 17.7226C27.949 17.2976 28.183 16.7326 28.183 16.1315C28.183 15.5305 27.949 14.9654 27.524 14.5405L27.026 14.0424C26.601 13.6174 26.0358 13.3834 25.4348 13.3834C24.8338 13.3834 24.2687 13.6174 23.8438 14.0424C23.77 14.116 23.6838 14.1331 23.5876 14.0934C23.4912 14.0534 23.4425 13.9804 23.4425 13.8761C23.4425 12.6354 22.4331 11.626 21.1923 11.626H20.488C19.2472 11.626 18.2378 12.6354 18.2378 13.8761C18.2378 13.9804 18.189 14.0535 18.0927 14.0934C17.9963 14.1332 17.9102 14.116 17.8365 14.0424C17.4115 13.6174 16.8463 13.3834 16.2455 13.3834C15.6445 13.3834 15.0793 13.6174 14.6543 14.0425L14.1563 14.5405C13.7313 14.9655 13.4973 15.5306 13.4973 16.1316C13.4973 16.7326 13.7313 17.2977 14.1563 17.7227C14.2301 17.7965 14.2472 17.8827 14.2072 17.979C14.1673 18.0754 14.0942 18.1241 13.99 18.1241C12.7492 18.1241 11.7398 19.1335 11.7398 20.3742V21.0786C11.7398 22.3194 12.7492 23.3287 13.99 23.3287C14.0942 23.3287 14.1673 23.3776 14.2072 23.4739C14.2472 23.5702 14.23 23.6564 14.1563 23.7301C13.7313 24.1551 13.4973 24.7202 13.4973 25.3212C13.4973 25.9222 13.7313 26.4874 14.1563 26.9122L14.6545 27.4104C15.5316 28.2875 16.9591 28.2875 17.8363 27.4102ZM13.9898 21.4524C13.7836 21.4524 13.616 21.2846 13.616 21.0785V20.3741C13.616 20.1679 13.7837 20.0002 13.9898 20.0002C14.8468 20.0002 15.6126 19.4886 15.9405 18.6969C16.2685 17.9051 16.0887 17.0019 15.4827 16.3959C15.3875 16.3006 15.3732 16.1894 15.3732 16.1315C15.3732 16.0736 15.3873 15.9625 15.4828 15.867L15.9808 15.369C16.1266 15.2231 16.3638 15.223 16.5096 15.369C17.1156 15.975 18.0188 16.1545 18.8105 15.8267C19.6023 15.4989 20.114 14.7331 20.114 13.8761C20.114 13.6699 20.2817 13.5022 20.4878 13.5022H21.1922C21.3985 13.5022 21.5661 13.67 21.5661 13.8761C21.5661 14.7331 22.0777 15.4989 22.8695 15.8267C23.6612 16.1549 24.5643 15.9751 25.1705 15.369C25.2657 15.2737 25.377 15.2595 25.4348 15.2595C25.4927 15.2595 25.6038 15.2736 25.6992 15.369L26.1973 15.8671C26.3431 16.0129 26.3431 16.2501 26.1973 16.3959C25.5913 17.0019 25.4117 17.905 25.7396 18.6967C26.0676 19.4885 26.8332 20.0001 27.6902 20.0001C27.8965 20.0001 28.0642 20.1679 28.0642 20.374V21.0784C28.0642 21.2846 27.8965 21.4522 27.6902 21.4522C26.8332 21.4522 26.0676 21.9639 25.7396 22.7556C25.4116 23.5474 25.5912 24.4506 26.1973 25.0565C26.3431 25.2022 26.3431 25.4395 26.1973 25.5852L25.6992 26.0834C25.5533 26.2291 25.3162 26.2291 25.1705 26.0834C24.5645 25.4774 23.6611 25.2977 22.8696 25.6256C22.0778 25.9536 21.5662 26.7192 21.5662 27.5762C21.5662 27.7825 21.3985 27.9501 21.1923 27.9501H20.488C20.2817 27.9501 20.1141 27.7824 20.1141 27.5762C20.1141 26.7191 19.6025 25.9535 18.8106 25.6256C18.5478 25.5167 18.2728 25.4639 18.0005 25.4639C17.4521 25.4639 16.9146 25.6784 16.5097 26.0832C16.3638 26.2291 16.1267 26.229 15.981 26.0832L15.4828 25.5851C15.3876 25.4899 15.3733 25.3786 15.3733 25.3207C15.3733 25.2629 15.3875 25.1517 15.4828 25.0564C16.0888 24.4504 16.2685 23.5472 15.9406 22.7555C15.6125 21.964 14.8468 21.4524 13.9898 21.4524Z" fill="#6C1D5F"/>
<path d="M20.8401 23.983C22.6357 23.983 24.0967 22.5221 24.0967 20.7264C24.0967 18.9306 22.6358 17.4697 20.8401 17.4697C19.0445 17.4697 17.5835 18.9306 17.5835 20.7264C17.5835 22.5221 19.0443 23.983 20.8401 23.983ZM20.8401 19.346C21.6012 19.346 22.2205 19.9652 22.2205 20.7264C22.2205 21.4875 21.6012 22.1067 20.8401 22.1067C20.079 22.1067 19.4597 21.4875 19.4597 20.7264C19.4597 19.9652 20.079 19.346 20.8401 19.346Z" fill="#6C1D5F"/>
<path d="M63.5973 35.3441L60.799 29.4699C60.6913 29.2439 60.6328 28.9921 60.6297 28.7419L60.5762 24.4389C60.5762 11.2841 49.9856 0.545125 36.9681 0.500125C36.9406 0.5 36.9131 0.5 36.8855 0.5C32.654 0.5 28.5028 1.6285 24.8758 3.76588C24.4295 4.02888 24.2808 4.604 24.5438 5.05037C24.8068 5.49675 25.382 5.64537 25.8283 5.38237C29.167 3.415 32.9887 2.37625 36.8855 2.37625C36.9108 2.37625 36.9362 2.37625 36.9616 2.37637C48.9481 2.41787 58.7 12.3151 58.7001 24.4505L58.7536 28.765C58.76 29.2846 58.8816 29.8072 59.1051 30.2766L61.9035 36.1509C62.4647 37.3291 61.5988 38.6665 60.3245 38.6666C58.3178 38.6431 56.6706 40.2671 56.6705 42.2853L56.6701 49.8625C56.67 51.675 55.0605 53.0621 53.27 52.8003L46.7202 51.8396C44.7338 51.5483 42.9522 53.0897 42.9522 55.0954V57.1681L23.1353 55.3358V52.2271C23.1353 51.709 22.7153 51.289 22.1972 51.289C21.6791 51.289 21.2591 51.709 21.2591 52.2271V55.1623L20.9145 55.1304C19.0666 54.9593 17.4688 56.4168 17.4688 58.2721V61.3214C17.4688 63.0595 18.8828 64.4749 20.621 64.4765L45.2731 64.5H45.2762C47.0186 64.5 48.4312 63.0901 48.4312 61.3449V60.5515C48.4312 58.9114 47.1997 57.5608 45.5666 57.4098L44.8283 57.3415V55.0952C44.8283 54.2313 45.5916 53.5709 46.4478 53.6959L52.9976 54.6565C55.9228 55.0858 58.5461 52.8154 58.5462 49.8625L58.5466 42.2853C58.5467 41.3198 59.3312 40.5315 60.3153 40.5428C62.9848 40.5429 64.7476 37.7587 63.5973 35.3441ZM46.555 60.5516V61.345C46.555 62.0513 45.9835 62.6239 45.2761 62.6239C45.2757 62.6239 45.2752 62.6239 45.2748 62.6239L20.6226 62.6003C19.9181 62.5996 19.345 62.0259 19.345 61.3214V58.2721C19.345 57.5245 19.9853 56.9285 20.7416 56.9987L22.1007 57.1244C22.1011 57.1244 22.1013 57.1244 22.1017 57.1245L45.3938 59.2783C46.0558 59.3394 46.555 59.8867 46.555 60.5516Z" fill="#6C1D5F"/>
<path d="M18.9912 48.7799H22.9525C25.4236 48.7799 27.4614 46.8909 27.6985 44.4811C28.4461 44.1481 28.9694 43.3994 28.9694 42.5296V38.0007C28.9694 37.2617 28.5921 36.6095 28.0202 36.2256C28.7237 33.7836 29.9464 31.4811 31.5877 29.525C39.3215 20.309 32.5687 6.33612 20.6404 6.4945C8.88148 6.65837 2.57448 20.4505 10.0355 29.4565C11.6987 31.4642 12.9372 33.7927 13.6492 36.2329C13.0835 36.6176 12.711 37.2664 12.711 38.0006V42.5295C12.711 43.5028 13.3657 44.3244 14.2574 44.5814C14.5405 46.9429 16.5547 48.7799 18.9912 48.7799ZM14.8475 42.79C14.7039 42.79 14.5871 42.6732 14.5871 42.5296V38.0007C14.5871 37.8571 14.7039 37.7404 14.8475 37.7404H26.8309C26.834 37.7406 26.8371 37.741 26.8402 37.7411C26.9801 37.7454 27.0929 37.8599 27.0929 38.0007V42.5296C27.0929 42.6732 26.976 42.79 26.8325 42.79H14.8475ZM22.9525 46.9036H18.9912C17.6215 46.9036 16.4719 45.9465 16.174 44.6661H25.7697C25.4719 45.9465 24.3222 46.9036 22.9525 46.9036ZM20.6665 8.3705C31.0711 8.23325 36.7859 20.4115 30.1505 28.319C28.3059 30.5171 26.9406 33.1126 26.1724 35.8641H15.4955C14.7196 33.1221 13.3415 30.5064 11.4802 28.2596C5.01548 20.456 10.4887 8.5125 20.6665 8.3705Z" fill="#6C1D5F"/>
</g>
<defs>
<clipPath id="clip0_703_1301">
<rect width="64" height="64" fill="white" transform="translate(0.599976 0.5)"/>
</clipPath>
</defs>
</svg>
