<svg width="64" height="65" viewBox="0 0 64 65" fill="none" xmlns="http://www.w3.org/2000/svg">
<path d="M63.997 52.5081C63.9964 52.4988 63.9965 52.4895 63.9956 52.4801C63.9922 52.443 63.9869 52.4066 63.9793 52.371C63.9785 52.3675 63.9774 52.364 63.9765 52.3605C63.9691 52.3278 63.96 52.2958 63.9492 52.2645C63.9464 52.2561 63.9432 52.248 63.9401 52.2398C63.9296 52.2114 63.9178 52.1838 63.9046 52.1569C63.9024 52.1521 63.9009 52.1473 63.8985 52.1425L58.8845 42.2528V9.71527C58.8845 8.71452 58.0704 7.90039 57.0696 7.90039H6.93013C5.92938 7.90039 5.11525 8.71452 5.11525 9.71527V42.2525L0.101375 52.1424C0.099 52.1471 0.0975 52.152 0.09525 52.1568C0.082125 52.1836 0.070375 52.2113 0.05975 52.2395C0.056625 52.2478 0.0535 52.256 0.050625 52.2644C0.04 52.2958 0.03075 52.3279 0.023375 52.3606C0.022625 52.364 0.0215 52.3674 0.02075 52.3708C0.013125 52.4065 0.00775 52.4429 0.004375 52.48C0.0035 52.4893 0.0035 52.4986 0.003 52.5079C0.00175 52.5274 0 52.5466 0 52.5664V54.9446C0 56.1333 0.966875 57.1001 2.1555 57.1001H61.8445C63.0331 57.1001 64 56.1333 64 54.9446V52.5664C64 52.5466 63.9983 52.5274 63.997 52.5081ZM6.99038 9.77564H57.0096V41.5393H6.99038V9.77564ZM6.62862 43.4141H57.3713L61.536 51.6288H40.9385L39.9046 47.8801C39.6941 47.117 38.9944 46.584 38.2028 46.584H25.797C25.0054 46.584 24.3055 47.117 24.0951 47.88L23.0613 51.6288H2.46388L6.62862 43.4141ZM38.9935 51.6289H25.0065L25.8806 48.4591H38.1194L38.9935 51.6289ZM62.125 54.9445C62.125 55.0991 61.9991 55.225 61.8445 55.225H2.1555C2.00087 55.225 1.875 55.0991 1.875 54.9445V53.5038H62.125V54.9445Z" fill="#6C1D5F"/>
<path d="M54.0721 27.2197C53.5543 27.2197 53.1346 27.6394 53.1346 28.1572V37.6641H10.8654V28.1572C10.8654 27.6394 10.4458 27.2197 9.92789 27.2197C9.41001 27.2197 8.99039 27.6394 8.99039 28.1572V38.069C8.99039 38.8796 9.64976 39.5391 10.4605 39.5391H53.5396C54.3503 39.5391 55.0098 38.8797 55.0098 38.069V28.1572C55.0096 27.6396 54.59 27.2197 54.0721 27.2197Z" fill="#6C1D5F"/>
<path d="M53.5395 11.7754H10.4605C9.64989 11.7754 8.99039 12.4348 8.99039 13.2455V23.1573C8.99039 23.6751 9.41001 24.0948 9.92789 24.0948C10.4458 24.0948 10.8654 23.6751 10.8654 23.1573V13.6504H53.1346V23.1573C53.1346 23.6751 53.5543 24.0948 54.0721 24.0948C54.59 24.0948 55.0096 23.6751 55.0096 23.1573V13.2455C55.0096 12.4346 54.3503 11.7754 53.5395 11.7754Z" fill="#6C1D5F"/>
</svg>
