<svg viewBox="0 0 4400 2475"
  xmlns="http://www.w3.org/2000/svg"
  xmlns:xlink="http://www.w3.org/1999/xlink" xml:space="preserve">
  <path d="M1308.47 2135.19C1064.15 2165.75 840.845 2172.65 663.763 2065.01 486.589 1957.32 356.173 1735.12 315.562 1457.3 274.95 1179.48 324.727 846.203 528.754 648.97 732.597 452.323 1090.78 391.761 1358.84 497.209 1626.41 602.521 1803.77 873.799 1909.5 1150.78 2015.23 1427.76 2050.15 1711.31 1934.84 1880.03 1819.18 2049.25 1553.02 2104.19 1308.56 2135.24Z" fill="#6C1D5F" fill-rule="evenodd" fill-opacity="1"/>
  <path d="M4400.5 704.5C4127.3 660.449 3805.54 458.125 3474.06 350.116 3088.58 205.644 2745.7 191.94 2411.58 56.449 2212.1-3.63236 2275.59-16.0004 2310.15 22.6229" stroke="#6C1D5F" stroke-width="6.89665" stroke-linecap="butt" stroke-linejoin="miter" stroke-miterlimit="8" stroke-opacity="1" fill="none" fill-rule="evenodd"/>
  <path d="M3082.5 0.499836 4400.5 0.499836 4400.5 554.967 4380.51 555.5C4237.2 551.593 4060.89 444.042 3900.27 384.379 3716.7 316.191 3553.55 310.138 3394.44 246.153 3275.41 198.115 3158.39 117.527 3091.05 15.838Z" stroke="#6C1D5F" stroke-width="4.58333" stroke-linecap="butt" stroke-linejoin="miter" stroke-miterlimit="8" stroke-opacity="1" fill="#6C1D5F" fill-rule="evenodd" fill-opacity="1"/>
  <path d="M3219.41 1927.43C3539.31 1919.95 3959.79 2010.89 4348.85 2195.63L4400 2221.04 4400 2475 2212 2475 2279.21 2409.12C2465.44 2224.73 2654.38 2046.67 2956.53 1962.41 3032.07 1941.34 3120.98 1929.72 3219.41 1927.43Z" fill="#FFFFFF" fill-rule="evenodd" fill-opacity="1"/>
</svg>