<svg viewBox="0 0 4400 2475"
  xmlns="http://www.w3.org/2000/svg"
  xmlns:xlink="http://www.w3.org/1999/xlink" xml:space="preserve">
  <path d="M2766.49 0 2912 0 2907.25 52.1118C2861.15 451.335 2710.84 882.846 2658.38 1228.01 2582.08 1730.08 2712.39 2051.77 2758.04 2462.92L2759 2475 2566.46 2475 2565.56 2469.81C2513.23 2182.34 2454.24 1907.25 2511.46 1530.71 2578.22 1091.41 2803.5 512.239 2770.7 37.78Z" fill="#6C1D5F" fill-rule="evenodd" fill-opacity="1"/>
  <path d="M2907.5 0 2993.09 0 2994.48 11.3017C3032.96 485.333 2814.66 1067.16 2753.17 1507.23 2700.46 1884.43 2762.73 2158.8 2818.49 2445.61L2823.92 2475 2754.07 2475 2753.11 2462.92C2707.46 2051.77 2577.17 1730.08 2653.46 1228.01 2707.7 871.079 2866.57 421.814 2906.64 11.3991Z" fill="#491E47" fill-rule="evenodd" fill-opacity="1"/>
</svg>