<svg viewBox="0 0 4400 2475"
  xmlns="http://www.w3.org/2000/svg"
  xmlns:xlink="http://www.w3.org/1999/xlink" xml:space="preserve">
  <path d="M277.834 0 423 0 418.265 52.1118C372.273 451.335 222.313 882.846 169.98 1228.01 93.8593 1730.08 223.86 2051.77 269.407 2462.92L270.363 2475 78.2709 2475 77.3782 2469.81C25.1691 2182.34-33.6839 1907.25 23.4063 1530.71 90.0121 1091.41 314.754 512.239 282.03 37.78Z" fill="#6C1D5F" fill-rule="evenodd" fill-opacity="1" transform="matrix(-1 0 0 1 1914 0)"/>
  <path d="M277.495 0 363.089 0 364.484 11.3017C402.959 485.333 184.659 1067.16 123.166 1507.23 70.4608 1884.43 132.732 2158.8 188.494 2445.61L193.922 2475 124.066 2475 123.108 2462.92C77.4596 2051.77-52.8322 1730.08 23.4587 1228.01 77.6967 871.079 236.565 421.814 276.641 11.3991Z" fill="#491E47" fill-rule="evenodd" fill-opacity="1" transform="matrix(-1 0 0 1 1769 0)"/>
</svg>