<svg viewBox="0 0 4400 2475"
  xmlns="http://www.w3.org/2000/svg"
  xmlns:xlink="http://www.w3.org/1999/xlink" xml:space="preserve">
  <path d="M4012.44 1161.06C4073.61 1377.2 4110.55 1577.64 4037.83 1752.16 3965.08 1926.76 3782.63 2074.95 3537.65 2149.8 3292.68 2224.64 2985.26 2225.6 2779.31 2068.73 2573.92 1911.94 2470.02 1597.23 2528.25 1340.97 2586.41 1085.17 2806.67 887.892 3041.93 754.43 3277.19 620.969 3528.11 550.471 3696.14 631.251 3864.67 712.288 3950.83 944.773 4012.46 1160.97Z" fill="#FFFFFF" fill-rule="evenodd" fill-opacity="1"/>
  <path d="M3699.8 1396.03C3722.03 1396.19 3744.33 1397.06 3766.69 1398.66 3968.07 1413.05 4174.69 1487.05 4366.57 1611.59L4400 1634.46 4400 2475 1953 2475 1955.23 2464.83C2036.28 2180.1 2381.67 1941.55 2713.85 1744.72L2714.03 1744.72C3046.37 1548.61 3366.27 1393.56 3699.8 1396.03Z" fill="#FFFFFF" fill-rule="evenodd" fill-opacity="1"/>
</svg>